<svg width="28" height="28" viewBox="0 0 28 28" fill="none" xmlns="http://www.w3.org/2000/svg">
<path d="M18.6667 9.33337C20.5232 9.33337 22.3037 10.0709 23.6164 11.3836C24.9292 12.6964 25.6667 14.4769 25.6667 16.3334V24.5H21V16.3334C21 15.7145 20.7542 15.121 20.3166 14.6835C19.879 14.2459 19.2855 14 18.6667 14C18.0478 14 17.4543 14.2459 17.0168 14.6835C16.5792 15.121 16.3333 15.7145 16.3333 16.3334V24.5H11.6667V16.3334C11.6667 14.4769 12.4042 12.6964 13.7169 11.3836C15.0297 10.0709 16.8102 9.33337 18.6667 9.33337Z" fill="black"/>
<path d="M7 10.5H2.33333V24.5H7V10.5Z" fill="black"/>
<path d="M4.66667 7.00004C5.95533 7.00004 7 5.95537 7 4.66671C7 3.37804 5.95533 2.33337 4.66667 2.33337C3.378 2.33337 2.33333 3.37804 2.33333 4.66671C2.33333 5.95537 3.378 7.00004 4.66667 7.00004Z" fill="black"/>
</svg>
